# xmcd
#
# Track frame offsets: 
#        150
#        17747
#        36517
#        55690
#        86270
#        104302
#        126365
#        156320
#        178822
#        210770
#        233122
#        251560
#        271135
#        305702
#
# Disc length: 4267 seconds
#
# Revision: 0
# Processed by: cddbd v1.5.2PL0 Copyright (c) Steve Scherf et al.
# Submitted via: ExactAudioCopyFreeDBPlugin 1.0
#
DISCID=b810a90e
DTITLE=Gary Moore - 1994 - Ballads and Blues [1982-1994]
DYEAR=1994
DGENRE=
TTITLE0=Always Gonna Love You
TTITLE1=Still Got The Blues
TTITLE2=Empty Rooms
TTITLE3=Parisienne Walkways
TTITLE4=One Day [Previously Unreleashed]
TTITLE5=Separate Ways
TTITLE6=Story Of The Blues
TTITLE7=Crying In The Shadows
TTITLE8=With Love [Remember] [Previously Unreleashed]
TTITLE9=Midnight Blues
TTITLE10=Falling In Love With You [Previously Unreleashed]
TTITLE11=Jumpin' At Shadows
TTITLE12=Blues For Narada [Previously Unreleashed]
TTITLE13=Johnny Boy
EXTD=
EXTT0=
EXTT1=
EXTT2=
EXTT3=
EXTT4=
EXTT5=
EXTT6=
EXTT7=
EXTT8=
EXTT9=
EXTT10=
EXTT11=
EXTT12=
EXTT13=
PLAYORDER=
